<?xml version="1.0" encoding="UTF-8"?>
<svg version="1.1" xmlns="http://www.w3.org/2000/svg" width="150" height="134">
<path d="M0 0 C49.5 0 99 0 150 0 C150 44.22 150 88.44 150 134 C100.5 134 51 134 0 134 C0 89.78 0 45.56 0 0 Z " fill="#FEFDFB" transform="translate(0,0)"/>
<path d="M0 0 C2.64015065 1.75000811 3.3517964 3.12893567 5 6 C5.43520295 9.54785015 5.47854917 11.30994392 3.41796875 14.28125 C2.31388672 15.37953125 2.31388672 15.37953125 1.1875 16.5 C-2.55899204 20.41625496 -6.00218711 24.40644892 -9.3125 28.6875 C-10.23162518 29.87120686 -11.15089914 31.05479821 -12.0703125 32.23828125 C-12.54114258 32.84494629 -13.01197266 33.45161133 -13.49707031 34.07666016 C-16.19780975 37.53286959 -18.94362331 40.95300836 -21.6875 44.375 C-22.21706299 45.03588623 -22.74662598 45.69677246 -23.29223633 46.37768555 C-24.52762016 47.91888794 -25.7637258 49.45951172 -27 51 C-22.99759672 49.32909378 -19.97940891 46.56664496 -16.75 43.75 C-3.06122115 32 -3.06122115 32 0 32 C0 31.34 0 30.68 0 30 C1.58203125 28.7734375 1.58203125 28.7734375 3.8125 27.375 C7.50168324 24.99881741 11.08322545 22.52892287 14.625 19.9375 C15.55441406 19.26589844 16.48382813 18.59429687 17.44140625 17.90234375 C18.96202 16.77175002 20.4601082 15.60791601 21.90234375 14.37890625 C26.0982865 10.89380557 29.47994151 10.30171059 34.7578125 10.56640625 C37.87925826 11.17003078 39.23826061 12.3956896 41 15 C42.63023814 18.26047629 42.4673535 20.37801035 42 24 C40.65722656 25.84277344 40.65722656 25.84277344 38.890625 27.734375 C37.93542969 28.78165771 37.93542969 28.78165771 36.9609375 29.85009766 C36.31382813 30.55956543 35.66671875 31.2690332 35 32 C32.71956651 34.68328404 30.48506371 37.40385924 28.25 40.125 C27.34483643 41.22642334 27.34483643 41.22642334 26.42138672 42.35009766 C17.96347897 52.67316258 9.74360411 63.12789107 2 74 C2.51949219 73.59007813 3.03898437 73.18015625 3.57421875 72.7578125 C7.2423777 69.92363424 10.51449706 67.40171967 15 66 C15 65.34 15 64.68 15 64 C19.97247397 59.6507789 25.4303626 57.80918066 32 58 C32.66 58.33 33.32 58.66 34 59 C34.4221315 64.14232916 33.30623764 66.80789168 30.5625 71.125 C27.5767205 75.77532407 27.5767205 75.77532407 26 81 C32.58093211 77.23628587 39.04853062 73.42200142 45.2578125 69.06640625 C47 68 47 68 49 68 C49 70.1875 49 70.1875 48 73 C46.02117634 74.50117657 43.98946221 75.69327697 41.8125 76.88671875 C39.84098593 77.87796297 39.84098593 77.87796297 39 80 C38.2575 80.28875 37.515 80.5775 36.75 80.875 C32.66468813 82.54626395 29.76608578 85.25407437 26.625 88.3125 C24 90 24 90 20.3125 89.875 C17 89 17 89 15 87 C15.23106652 81.22333696 17.24195617 76.93882266 20 72 C16.77778659 73.70587769 14.32218575 75.57915338 11.8125 78.1875 C10.884375 79.115625 9.95625 80.04375 9 81 C8.34 81 7.68 81 7 81 C6.505 82.485 6.505 82.485 6 84 C3.52475742 86.54931468 0.74182297 88.74370818 -2 91 C-3.0209375 91.88558594 -3.0209375 91.88558594 -4.0625 92.7890625 C-7.35617203 95.50376875 -9.423178 96.89245691 -13.6875 97.6875 C-17.98692201 96.79516713 -19.48381331 95.58365982 -22 92 C-22.58906375 87.09502359 -22.02593591 84.25130533 -19.05419922 80.27075195 C-18.62381348 79.72765381 -18.19342773 79.18455566 -17.75 78.625 C-16.82960017 77.40319342 -15.910382 76.18049602 -14.9921875 74.95703125 C-14.26080566 73.99724365 -14.26080566 73.99724365 -13.51464844 73.01806641 C-10.88210616 69.51055601 -8.38788376 65.90616386 -5.875 62.3125 C-1.31167726 55.82904674 3.30715336 49.39055293 8 43 C6.68 43.33 5.36 43.66 4 44 C4 44.66 4 45.32 4 46 C2.5390625 47.2890625 2.5390625 47.2890625 0.625 48.625 C-0.00148437 49.07101563 -0.62796875 49.51703125 -1.2734375 49.9765625 C-3 51 -3 51 -5 51 C-5 51.66 -5 52.32 -5 53 C-7.00669238 54.70172394 -9.02493113 56.29546573 -11.125 57.875 C-16.27037621 61.82507891 -21.28392249 65.87841992 -26.1875 70.125 C-26.76725586 70.62209473 -27.34701172 71.11918945 -27.94433594 71.63134766 C-30.67495596 73.9746293 -33.37983731 76.33805272 -36.04296875 78.7578125 C-43.75594172 85.54522872 -43.75594172 85.54522872 -48.4375 85.8125 C-52 85 -52 85 -54.4375 83.5625 C-56.78945688 79.70529072 -57.5102219 76.50925843 -57 72 C-55.45797566 68.02320039 -53.33067185 64.56158946 -51 61 C-50.44570313 60.15179688 -49.89140625 59.30359375 -49.3203125 58.4296875 C-45.73406479 53.15773811 -41.82165945 48.1689978 -37.796875 43.2265625 C-36.14855099 41.18407405 -34.56071205 39.10985147 -33 37 C-33.73605469 37.55429687 -34.47210938 38.10859375 -35.23046875 38.6796875 C-36.20628906 39.40414062 -37.18210937 40.12859375 -38.1875 40.875 C-39.15042969 41.59429687 -40.11335938 42.31359375 -41.10546875 43.0546875 C-45.71144603 46.1502026 -49.40689287 47.60794643 -55 47 C-56.9375 45.8125 -56.9375 45.8125 -58 44 C-56.83292047 35.6898313 -53.11081158 28.53048146 -48 22 C-48.67546875 22.58910156 -49.3509375 23.17820312 -50.046875 23.78515625 C-50.93890625 24.53667969 -51.8309375 25.28820312 -52.75 26.0625 C-53.63171875 26.81660156 -54.5134375 27.57070313 -55.421875 28.34765625 C-58 30 -58 30 -60.328125 29.74609375 C-60.87984375 29.49988281 -61.4315625 29.25367187 -62 29 C-62.5235617 24.94862968 -62.04214073 22.62234325 -59.734375 19.3515625 C-58.75477611 18.09735907 -57.75942929 16.85532221 -56.75 15.625 C-56.25886719 14.98433594 -55.76773438 14.34367187 -55.26171875 13.68359375 C-53.796875 11.8515625 -53.796875 11.8515625 -51 9 C-49.68 9 -48.36 9 -47 9 C-47 9.99 -47 10.98 -47 12 C-46.46890625 11.60167969 -45.9378125 11.20335937 -45.390625 10.79296875 C-43.26041667 9.1953125 -41.13020833 7.59765625 -39 6 C-38.30777344 5.43410156 -37.61554687 4.86820313 -36.90234375 4.28515625 C-35 3 -35 3 -32.3125 3.25 C-30 4 -30 4 -29 5 C-29 12.72502004 -32.4502048 17.00051515 -37 23 C-37.33 23.66 -37.66 24.32 -38 25 C-35.13541926 23.48813794 -33.18351203 22.23359634 -31.16796875 19.66796875 C-28.85970881 16.82735337 -26.43396232 14.76212288 -23.5625 12.5 C-20.62070201 10.1760205 -17.90262964 7.90053415 -15.27734375 5.21875 C-13 3 -13 3 -11 3 C-11 2.34 -11 1.68 -11 1 C-7.49945062 -0.75027469 -3.80988517 -0.68972059 0 0 Z " fill="#F88017" transform="translate(84,19)"/>
<path d="M0 0 C0 2.1875 0 2.1875 -1 5 C-2.97882366 6.50117657 -5.01053779 7.69327697 -7.1875 8.88671875 C-9.15901407 9.87796297 -9.15901407 9.87796297 -10 12 C-10.66 11.67 -11.32 11.34 -12 11 C-11.67 10.34 -11.34 9.68 -11 9 C-11.99580078 9.63228516 -11.99580078 9.63228516 -13.01171875 10.27734375 C-14.33623047 11.09912109 -14.33623047 11.09912109 -15.6875 11.9375 C-16.55761719 12.48277344 -17.42773438 13.02804688 -18.32421875 13.58984375 C-20.94624689 14.97167172 -23.08310075 15.58480173 -26 16 C-25.34 14.35 -24.68 12.7 -24 11 C-23.34 11.66 -22.68 12.32 -22 13 C-21.10692139 12.40928711 -21.10692139 12.40928711 -20.19580078 11.80664062 C-17.50862182 10.03302905 -14.81689655 8.26644235 -12.125 6.5 C-11.18785156 5.87996094 -10.25070313 5.25992188 -9.28515625 4.62109375 C-8.38925781 4.03457031 -7.49335937 3.44804688 -6.5703125 2.84375 C-5.74289551 2.29912109 -4.91547852 1.75449219 -4.06298828 1.19335938 C-2 0 -2 0 0 0 Z " fill="#F9D03F" transform="translate(133,87)"/>
<path d="M0 0 C0.66 0.33 1.32 0.66 2 1 C-1.07606392 3.57992458 -4.26961093 5.95693203 -7.5625 8.25 C-8.30628906 8.77078125 -9.05007812 9.2915625 -9.81640625 9.828125 C-12 11 -12 11 -16 11 C-15.34 9.35 -14.68 7.7 -14 6 C-13.34 6.66 -12.68 7.32 -12 8 C-8.04 5.36 -4.08 2.72 0 0 Z " fill="#FAD16E" transform="translate(123,92)"/>
<path d="M0 0 C-1.55500981 3.81684226 -4.03595495 6.19195732 -7 9 C-7 8.34 -7 7.68 -7 7 C-7.66 6.67 -8.32 6.34 -9 6 C-7.8803014 4.99406757 -6.7540588 3.9954151 -5.625 3 C-4.68527344 2.1646875 -4.68527344 2.1646875 -3.7265625 1.3125 C-2 0 -2 0 0 0 Z " fill="#FDD6C1" transform="translate(51,56)"/>
<path d="M0 0 C0.33 0.66 0.66 1.32 1 2 C1.66 2.33 2.32 2.66 3 3 C0.03 5.475 0.03 5.475 -3 8 C-3.66 7.67 -4.32 7.34 -5 7 C-3.35 4.69 -1.7 2.38 0 0 Z " fill="#FCDDB5" transform="translate(90,86)"/>
<path d="M0 0 C0.33 0.66 0.66 1.32 1 2 C1.99 2.33 2.98 2.66 4 3 C2.1875 5 2.1875 5 0 7 C-0.99 7 -1.98 7 -3 7 C-1.125 2.25 -1.125 2.25 0 0 Z " fill="#FDDDCB" transform="translate(49,37)"/>
<path d="M0 0 C0.66 0 1.32 0 2 0 C0.83857315 4.35535069 -0.07699505 6.64619703 -4 9 C-2.94124926 5.59687262 -1.99097846 2.98646769 0 0 Z " fill="#FBBD6C" transform="translate(93,59)"/>
</svg>
